<svg width="42" height="11" viewBox="0 0 42 11" fill="none" xmlns="http://www.w3.org/2000/svg">
<path d="M8.792 4.946C9.632 5.31 10.108 5.982 10.108 6.892C10.108 9.02 8.134 10 5.614 10H0.224L2.184 0.199999H7.14C9.352 0.199999 10.542 1.026 10.542 2.496C10.542 3.672 9.856 4.498 8.792 4.946ZM6.482 2.202H4.522L4.144 4.092H6.132C7.112 4.092 7.644 3.7 7.644 2.972C7.644 2.44 7.21 2.202 6.482 2.202ZM5.768 7.998C6.734 7.998 7.35 7.62 7.35 6.836C7.35 6.248 6.874 6.01 6.202 6.01H3.752L3.36 7.998H5.768ZM18.6818 10L18.2898 8.096H14.1178L12.9838 10H10.0578L16.3438 0.199999H19.0738L21.4398 10H18.6818ZM15.3358 6.052H17.8698L17.2118 2.874L15.3358 6.052ZM26.1436 10.196C24.4636 10.196 22.9376 9.748 22.0556 9.146L23.1476 7.074C24.1416 7.704 25.2896 8.04 26.4096 8.04C27.4736 8.04 28.0896 7.704 28.0896 7.172C28.0896 5.856 23.3296 6.584 23.3296 3.504C23.3296 1.39 25.1356 0.00399935 28.0336 0.00399935C29.4196 0.00399935 30.6796 0.298 31.5616 0.843999L30.5536 2.902C29.7836 2.412 28.8316 2.16 27.8656 2.16C26.7176 2.16 26.1016 2.58 26.1016 3.112C26.0876 4.456 30.8616 3.686 30.8616 6.71C30.8616 8.81 29.0136 10.196 26.1436 10.196ZM41.0021 2.342H36.0601L35.7381 3.994H40.0921L39.6861 6.066H35.3181L34.9681 7.858H40.1061L39.6581 10H31.8041L33.7641 0.199999H41.4361L41.0021 2.342Z" fill="white"/>
</svg>
