<svg width="62" height="17" viewBox="0 0 62 17" fill="none" xmlns="http://www.w3.org/2000/svg">
<g clip-path="url(#clip0_818_29459)">
<path d="M8.41404 16.5138C13.0772 16.5138 16.8575 12.8171 16.8575 8.25688C16.8575 3.69673 13.0772 0 8.41404 0C3.98988 0 0.360456 3.32747 0 7.56284H11.1603V8.95092H6.06147e-08C0.360457 13.1863 3.98988 16.5138 8.41404 16.5138Z" fill="white"/>
<path d="M21.0718 14.4386H26.0843C28.322 14.4386 29.9153 13.1408 29.9153 11.0189C29.9153 9.37045 28.9486 8.31821 27.3732 8.02009V7.9675C28.6979 7.65183 29.5214 6.70482 29.5214 5.28437C29.5214 3.32023 28.0356 2.09265 25.9053 2.09265H21.0718V14.4386ZM28.1788 5.44218C28.1788 6.70482 27.2479 7.51151 25.7262 7.51151H22.4144V3.215H25.7262C27.2479 3.215 28.1788 4.00416 28.1788 5.26683V5.44218ZM28.5727 11.054C28.5727 12.4218 27.5522 13.3162 25.8874 13.3162H22.4144V8.59879H25.8695C27.5344 8.59879 28.5727 9.45812 28.5727 10.8786V11.054Z" fill="white"/>
<path d="M39.3255 14.4386H40.7576L36.5686 2.09265H34.9396L30.8042 14.4386H32.1648L33.2388 11.089H38.2514L39.3255 14.4386ZM35.7093 3.44299H35.8167L37.9112 9.98424H33.5969L35.7093 3.44299Z" fill="white"/>
<path d="M46.4084 14.6841C49.1653 14.6841 50.9733 13.2285 50.9733 11.0364C50.9733 9.00213 49.6128 8.03762 47.5541 7.70441L45.7281 7.40628C44.3318 7.17834 43.4009 6.58209 43.4009 5.26682C43.4009 3.93401 44.4392 2.91687 46.4084 2.91687C48.3239 2.91687 49.3084 3.86386 49.4159 5.21418H50.7943C50.6869 3.42544 49.2905 1.82959 46.4262 1.82959C43.5978 1.82959 42.0403 3.39037 42.0403 5.31941C42.0403 7.37124 43.4546 8.3182 45.388 8.63387L47.2319 8.91445C48.7714 9.17754 49.6307 9.79128 49.6307 11.089C49.6307 12.6147 48.3597 13.5968 46.4262 13.5968C44.4213 13.5968 43.1681 12.6498 43.0607 11.0364H41.7002C41.8076 13.1408 43.4546 14.6841 46.4084 14.6841Z" fill="white"/>
<path d="M52.99 2.09265V14.4386H61.0816V13.2987H54.3328V8.59879H60.5442V7.47647H54.3328V3.23254H61.0816V2.09265H52.99Z" fill="white"/>
</g>
<defs>
<clipPath id="clip0_818_29459">
<rect width="61.1083" height="16.5138" fill="white"/>
</clipPath>
</defs>
</svg>
