<svg width="24" height="24" viewBox="0 0 24 24" fill="none" xmlns="http://www.w3.org/2000/svg">
<path d="M18.906 7.01251L18.9059 7.01244C18.7022 6.82975 18.4346 6.73575 18.1617 6.75175C17.8888 6.76775 17.6339 6.89238 17.4527 7.09746L17.4525 7.09771L9.91478 15.6537L6.53096 11.813L6.53106 11.8129L6.5254 11.8069C6.34175 11.6118 6.08967 11.496 5.82227 11.4846C5.55485 11.4732 5.29389 11.5672 5.09446 11.746C4.89511 11.9248 4.77289 12.1743 4.7529 12.4417C4.73292 12.709 4.81664 12.974 4.98696 13.1807L4.98686 13.1808L4.99232 13.187L9.14544 17.9014C9.14544 17.9014 9.14545 17.9014 9.14546 17.9014C9.24183 18.0109 9.36021 18.0986 9.49291 18.1587C9.62561 18.2189 9.76953 18.25 9.91517 18.25C10.0608 18.25 10.2047 18.2189 10.3374 18.1587C10.4701 18.0986 10.5885 18.0109 10.6849 17.9014C10.6849 17.9014 10.6849 17.9014 10.6849 17.9014L18.9912 8.47248L18.9913 8.47238C19.172 8.26703 19.2642 7.99815 19.2482 7.72483C19.2323 7.45151 19.1095 7.19523 18.906 7.01251Z" fill="black" stroke="black" stroke-width="0.5"/>
</svg>
