<svg width="28" height="28" viewBox="0 0 28 28" fill="none" xmlns="http://www.w3.org/2000/svg">
<path d="M0.585069 0.610577C0.959801 0.235635 1.46798 0.0250036 1.99785 0.0250036C2.52772 0.0250036 3.0359 0.235635 3.41063 0.610577L13.9875 11.1966L24.5644 0.610577C24.7487 0.419556 24.9692 0.267192 25.213 0.162374C25.4568 0.0575557 25.719 0.00238315 25.9844 7.55141e-05C26.2497 -0.00223212 26.5128 0.0483709 26.7584 0.148933C27.004 0.249494 27.2271 0.398001 27.4147 0.585786C27.6023 0.773571 27.7507 0.996876 27.8512 1.24267C27.9517 1.48846 28.0022 1.75182 27.9999 2.01738C27.9976 2.28294 27.9425 2.54538 27.8378 2.78938C27.733 3.03339 27.5808 3.25408 27.3899 3.43858L16.8131 14.0246L27.3899 24.6106C27.754 24.9878 27.9554 25.493 27.9508 26.0174C27.9463 26.5418 27.7361 27.0434 27.3656 27.4142C26.9951 27.785 26.4939 27.9954 25.97 27.9999C25.446 28.0045 24.9413 27.8029 24.5644 27.4386L13.9875 16.8526L3.41063 27.4386C3.03375 27.8029 2.52898 28.0045 2.00504 27.9999C1.4811 27.9954 0.979907 27.785 0.60941 27.4142C0.238913 27.0434 0.0287563 26.5418 0.0242034 26.0174C0.0196505 25.493 0.221066 24.9878 0.585069 24.6106L11.1619 14.0246L0.585069 3.43858C0.21045 3.06352 0 2.5549 0 2.02458C0 1.49425 0.21045 0.985632 0.585069 0.610577Z" fill="white"/>
</svg>
