<svg width="20" height="20" viewBox="0 0 20 20" fill="none" xmlns="http://www.w3.org/2000/svg">
<path d="M8.49863 9.47461C8.04494 9.47461 7.6875 9.85268 7.6875 10.327C7.6875 10.8013 8.05182 11.1793 8.49863 11.1793C8.95231 11.1793 9.30288 10.8013 9.30288 10.327C9.31663 9.85268 8.95231 9.47461 8.49863 9.47461ZM11.3926 9.47461C10.9389 9.47461 10.5814 9.85268 10.5814 10.327C10.5814 10.8013 10.9458 11.1793 11.3926 11.1793C11.8462 11.1793 12.2037 10.8013 12.2037 10.327C12.2037 9.85268 11.8325 9.47461 11.3926 9.47461Z" fill="white"/>
<path d="M12.1836 13.0703C12.1836 13.0703 11.8949 12.7335 11.6612 12.4517C12.6991 12.163 13.0978 11.5374 13.0978 11.5374C12.7748 11.7505 12.4654 11.8949 12.1905 11.998C11.7918 12.163 11.4137 12.2592 11.0425 12.3348C10.2795 12.4723 9.58524 12.4379 8.98721 12.3279C8.53353 12.2455 8.14859 12.1286 7.82551 11.9911C7.63991 11.9224 7.44744 11.833 7.2481 11.7299C7.2206 11.7162 7.19998 11.7093 7.17936 11.6887C7.16561 11.6818 7.15186 11.6749 7.14499 11.6749C7.00064 11.5993 6.92502 11.5443 6.92502 11.5443C6.92502 11.5443 7.30309 12.1561 8.31356 12.4517C8.07297 12.7473 7.78427 13.091 7.78427 13.091C6.03141 13.036 5.36464 11.9155 5.36464 11.9155C5.36464 9.43402 6.50571 7.41995 6.50571 7.41995C7.64679 6.5882 8.726 6.60882 8.726 6.60882L8.80849 6.70506C7.36496 7.09 6.71881 7.70866 6.71881 7.70866C6.71881 7.70866 6.89065 7.61929 7.18623 7.48869C8.03173 7.12437 8.70538 7.02813 8.98721 7.00064C9.03533 6.99376 9.07657 6.98689 9.12469 6.98689C9.60586 6.92503 10.1558 6.91128 10.7263 6.97314C11.4756 7.05563 12.2867 7.2756 13.1116 7.70866C13.1116 7.70866 12.486 7.12437 11.1388 6.72568L11.2487 6.60195C11.2487 6.60195 12.3348 6.58133 13.469 7.41308C13.469 7.41308 14.6101 9.42714 14.6101 11.9086C14.5963 11.8949 13.9365 13.0153 12.1836 13.0703ZM15.2425 3H4.62225C3.72864 3 3 3.71489 3 4.59476V15.0157C3 15.8955 3.72864 16.6104 4.62225 16.6104H13.6065L13.1872 15.1875L14.2045 16.1017L15.16 16.961L16.8716 18.4183V4.59476C16.8648 3.71489 16.1361 3 15.2425 3Z" fill="white"/>
</svg>
