<svg width="26" height="26" viewBox="0 0 26 26" fill="none" xmlns="http://www.w3.org/2000/svg">
<path d="M20.5078 6.11117C19.1268 5.47753 17.6459 5.01069 16.0976 4.74331C16.0694 4.73815 16.0412 4.75104 16.0267 4.77684C15.8362 5.11557 15.6253 5.55748 15.4776 5.90482C13.8122 5.6555 12.1554 5.6555 10.5242 5.90482C10.3765 5.54976 10.1578 5.11557 9.96654 4.77684C9.95201 4.75191 9.92384 4.73901 9.89564 4.74331C8.34816 5.00983 6.86729 5.47667 5.48547 6.11117C5.47351 6.11633 5.46326 6.12493 5.45645 6.1361C2.64755 10.3325 1.87807 14.4258 2.25555 18.4684C2.25726 18.4881 2.26836 18.5071 2.28374 18.5191C4.13697 19.8801 5.93214 20.7063 7.69398 21.2539C7.72217 21.2626 7.75205 21.2522 7.76999 21.229C8.18676 20.6599 8.55826 20.0598 8.87679 19.4287C8.89559 19.3917 8.87765 19.3479 8.83923 19.3333C8.24995 19.1097 7.68885 18.8372 7.14911 18.5277C7.10641 18.5028 7.103 18.4417 7.14227 18.4125C7.25585 18.3274 7.36946 18.2388 7.47792 18.1494C7.49754 18.1331 7.52488 18.1296 7.54795 18.1399C11.0938 19.7589 14.9327 19.7589 18.4367 18.1399C18.4598 18.1288 18.4872 18.1322 18.5076 18.1485C18.6161 18.2379 18.7297 18.3274 18.8441 18.4125C18.8834 18.4417 18.8808 18.5028 18.8382 18.5277C18.2984 18.8432 17.7373 19.1097 17.1472 19.3324C17.1088 19.347 17.0917 19.3917 17.1105 19.4287C17.4358 20.0589 17.8073 20.659 18.2164 21.2282C18.2335 21.2522 18.2642 21.2626 18.2924 21.2539C20.0628 20.7063 21.858 19.8801 23.7112 18.5191C23.7274 18.5071 23.7377 18.489 23.7394 18.4692C24.1912 13.7956 22.9827 9.73588 20.5359 6.13696C20.53 6.12493 20.5197 6.11633 20.5078 6.11117ZM9.40631 16.0069C8.33876 16.0069 7.45912 15.0268 7.45912 13.8231C7.45912 12.6195 8.3217 11.6394 9.40631 11.6394C10.4994 11.6394 11.3706 12.6281 11.3535 13.8231C11.3535 15.0268 10.4909 16.0069 9.40631 16.0069ZM16.6057 16.0069C15.5382 16.0069 14.6586 15.0268 14.6586 13.8231C14.6586 12.6195 15.5211 11.6394 16.6057 11.6394C17.6989 11.6394 18.57 12.6281 18.5529 13.8231C18.5529 15.0268 17.6989 16.0069 16.6057 16.0069Z" fill="black"/>
</svg>
