<svg width="14" height="12" viewBox="0 0 14 12" fill="none" xmlns="http://www.w3.org/2000/svg">
<path d="M0 1.79992C0 1.42861 0.147501 1.07251 0.410055 0.809957C0.672609 0.547403 1.02871 0.399902 1.40001 0.399902H7.70008C8.07139 0.399902 8.42749 0.547403 8.69004 0.809957C8.9526 1.07251 9.1001 1.42861 9.1001 1.79992V3.19993C9.1001 3.38559 9.02635 3.56364 8.89507 3.69491C8.76379 3.82619 8.58574 3.89994 8.40009 3.89994C8.21444 3.89994 8.03639 3.82619 7.90511 3.69491C7.77383 3.56364 7.70008 3.38559 7.70008 3.19993V1.79992H1.40001V10.2H7.70008V8.79999C7.70008 8.61434 7.77383 8.43629 7.90511 8.30501C8.03639 8.17374 8.21444 8.09999 8.40009 8.09999C8.58574 8.09999 8.76379 8.17374 8.89507 8.30501C9.02635 8.43629 9.1001 8.61434 9.1001 8.79999V10.2C9.1001 10.5713 8.9526 10.9274 8.69004 11.19C8.42749 11.4525 8.07139 11.6 7.70008 11.6H1.40001C1.02871 11.6 0.672609 11.4525 0.410055 11.19C0.147501 10.9274 0 10.5713 0 10.2V1.79992ZM10.7052 3.40503C10.8365 3.2738 11.0145 3.20008 11.2001 3.20008C11.3857 3.20008 11.5638 3.2738 11.695 3.40503L13.795 5.50506C13.9263 5.63633 14 5.81435 14 5.99996C14 6.18558 13.9263 6.3636 13.795 6.49487L11.695 8.59489C11.563 8.7224 11.3862 8.79296 11.2026 8.79136C11.0191 8.78977 10.8435 8.71615 10.7137 8.58636C10.584 8.45658 10.5103 8.28101 10.5087 8.09747C10.5071 7.91393 10.5777 7.7371 10.7052 7.60508L11.6103 6.69997H4.90005C4.7144 6.69997 4.53635 6.62622 4.40507 6.49494C4.2738 6.36367 4.20004 6.18562 4.20004 5.99996C4.20004 5.81431 4.2738 5.63626 4.40507 5.50498C4.53635 5.37371 4.7144 5.29996 4.90005 5.29996H11.6103L10.7052 4.39485C10.574 4.26357 10.5003 4.08556 10.5003 3.89994C10.5003 3.71432 10.574 3.53631 10.7052 3.40503Z" fill="#0D0D0D"/>
</svg>
