<svg width="24" height="24" viewBox="0 0 24 24" fill="none" xmlns="http://www.w3.org/2000/svg">
<g clip-path="url(#clip0_2_35)">
<path d="M12.8401 1.86864L15.5658 7.3715C15.6278 7.51118 15.7253 7.63216 15.8486 7.7224C15.9719 7.81262 16.1168 7.86897 16.2686 7.88578L22.2857 8.77721C22.4601 8.7996 22.6243 8.8711 22.7594 8.98337C22.8945 9.09562 22.9949 9.24401 23.0488 9.41117C23.1028 9.57835 23.1079 9.75742 23.0638 9.92746C23.02 10.0975 22.9284 10.2515 22.8 10.3715L18.4629 14.6744C18.3523 14.7778 18.2692 14.9072 18.2213 15.051C18.1733 15.1947 18.1622 15.3481 18.1886 15.4972L19.2343 21.5486C19.2646 21.7226 19.2454 21.9014 19.1791 22.0649C19.1128 22.2285 19.0018 22.3701 18.8589 22.4738C18.7161 22.5773 18.5469 22.6387 18.3708 22.651C18.1948 22.6632 18.0187 22.6258 17.8629 22.5429L12.4458 19.68C12.3071 19.6119 12.1546 19.5766 12.0001 19.5766C11.8455 19.5766 11.6931 19.6119 11.5543 19.68L6.1372 22.5429C5.98136 22.6258 5.80539 22.6632 5.62931 22.651C5.45324 22.6387 5.28412 22.5773 5.14124 22.4738C4.99833 22.3701 4.88739 22.2285 4.82101 22.0649C4.75465 21.9014 4.7355 21.7226 4.76577 21.5486L5.81149 15.4286C5.83799 15.2795 5.82678 15.1261 5.77888 14.9824C5.73099 14.8387 5.64789 14.7092 5.5372 14.6058L1.14864 10.3715C1.0188 10.2482 0.927494 10.09 0.885775 9.91587C0.844056 9.74177 0.853718 9.5593 0.913586 9.39058C0.973456 9.22186 1.08096 9.07413 1.22309 8.96525C1.36522 8.85639 1.53586 8.79106 1.71435 8.77721L7.73149 7.88578C7.88337 7.86897 8.0282 7.81262 8.15152 7.7224C8.27485 7.63216 8.37236 7.51118 8.43435 7.3715L11.1601 1.86864C11.2343 1.70837 11.3528 1.57268 11.5017 1.47759C11.6505 1.38249 11.8234 1.33196 12.0001 1.33196C12.1767 1.33196 12.3496 1.38249 12.4985 1.47759C12.6473 1.57268 12.7658 1.70837 12.8401 1.86864Z" stroke="white" stroke-linecap="round" stroke-linejoin="round"/>
</g>
<defs>
<clipPath id="clip0_2_35">
<rect width="24" height="24" fill="white"/>
</clipPath>
</defs>
</svg>
