<svg width="27" height="20" viewBox="0 0 27 20" fill="none" xmlns="http://www.w3.org/2000/svg">
<path fill-rule="evenodd" clip-rule="evenodd" d="M16.1537 7.10449C17.5052 7.07119 18.7124 6.22935 19.2394 4.95269C19.3519 5.00133 19.4722 5.02816 19.5943 5.0318H25.7657C26.4048 5.0318 26.9229 4.50052 26.9229 3.84515C26.9229 3.18978 26.4048 2.6585 25.7657 2.6585H19.6714C19.6049 2.64955 19.5374 2.64955 19.4709 2.6585C19.0289 0.877885 17.3285 -0.256882 15.5619 0.0499981C13.7954 0.356878 12.5542 2.00267 12.7088 3.8332C12.8634 5.66372 14.3621 7.06617 16.1537 7.05703V7.10449ZM16.1537 2.43699C16.7757 2.43699 17.28 2.9541 17.28 3.592C17.28 4.22989 16.7757 4.74701 16.1537 4.74701C15.5317 4.74701 15.0274 4.22989 15.0274 3.592C15.0274 2.9541 15.5317 2.43699 16.1537 2.43699Z" fill="black"/>
<path d="M1.15714 2.6585H10.4143C11.0534 2.6585 11.5714 3.18978 11.5714 3.84515C11.5714 4.50052 11.0534 5.0318 10.4143 5.0318H1.15714C0.518071 5.0318 0 4.50052 0 3.84515C0 3.18978 0.518071 2.6585 1.15714 2.6585Z" fill="black"/>
<path fill-rule="evenodd" clip-rule="evenodd" d="M4.104 15.3161C4.58727 13.9144 5.87877 12.9765 7.32857 12.9745V12.9428C9.07326 12.9405 10.5434 14.2778 10.7495 16.0545C10.9555 17.8311 9.83216 19.4847 8.13561 19.9021C6.43906 20.3195 4.70643 19.3686 4.104 17.6894H1.15714C0.518071 17.6894 0 17.1582 0 16.5028C0 15.8474 0.518071 15.3161 1.15714 15.3161H4.104ZM6.20415 16.586C6.21475 17.2154 6.71478 17.7201 7.32857 17.7211V17.6578C7.9506 17.6578 8.45486 17.1407 8.45486 16.5028C8.42122 15.8743 7.90306 15.3891 7.28967 15.4118C6.67628 15.4345 6.19355 15.9567 6.20415 16.586Z" fill="black"/>
<path d="M13.5 15.3161H25.8429C26.4819 15.3161 27 15.8474 27 16.5028C27 17.1582 26.4819 17.6894 25.8429 17.6894H13.5C12.8609 17.6894 12.3429 17.1582 12.3429 16.5028C12.3429 15.8474 12.8609 15.3161 13.5 15.3161Z" fill="black"/>
</svg>
