<svg width="24" height="24" viewBox="0 0 24 24" fill="none" xmlns="http://www.w3.org/2000/svg">
<path fill-rule="evenodd" clip-rule="evenodd" d="M4.63411 2.58613C4.63411 1.87584 5.20991 1.30005 5.9202 1.30005H18.0814C18.7877 1.30005 19.3674 1.86933 19.3674 2.58358V2.59373V2.60389V2.61406V2.62424V2.63443V2.64464V2.65485V2.66508V2.67532V2.68557V2.69583V2.70611V2.71639V2.72668V2.73699V2.74731V2.75764V2.76798V2.77833V2.78869V2.79906V2.80945V2.81984V2.83025V2.84066V2.85109V2.86153V2.87198V2.88244V2.89291V2.90339V2.91388V2.92439V2.9349V2.94543V2.95596V2.96651V2.97706V2.98763V2.99821V3.00879V3.01939V3.03V3.04062V3.05125V3.06189V3.07254V3.0832V3.09387V3.10455V3.11524V3.12594V3.13665V3.14737V3.1581V3.16884V3.17959V3.19035V3.20112V3.21191V3.2227V3.2335V3.24431V3.25513V3.26596V3.2768V3.28765V3.29851V3.30938V3.32025V3.33114V3.34204V3.35295V3.36387V3.37479V3.38573V3.39667V3.40763V3.41859V3.42957V3.44055V3.45154V3.46254V3.47355V3.48457V3.4956V3.50664V3.51769V3.52228H19.7786C21.3925 3.52228 22.7008 4.8306 22.7008 6.4445V7.8967C22.7008 9.02306 22.0534 10.0492 21.0368 10.5341L18.9689 11.5207C18.9037 11.5518 18.8361 11.5719 18.7683 11.5818C17.7267 13.9966 15.4304 15.7433 12.7008 16.0006V17.9667H14.5934C15.2257 17.9667 15.8409 18.1718 16.3467 18.5512L17.5319 19.4401C18.9243 20.4844 18.1857 22.7001 16.4452 22.7001H7.55635C5.81586 22.7001 5.07728 20.4844 6.46968 19.4401L7.65487 18.5512C8.16069 18.1718 8.77592 17.9667 9.4082 17.9667H11.3008V16.0006C8.5712 15.7433 6.27498 13.9966 5.2334 11.5818C5.16549 11.572 5.09789 11.5518 5.0327 11.5207L2.96473 10.5341C1.94814 10.0492 1.30078 9.02306 1.30078 7.8967V6.4445C1.30078 4.8306 2.60911 3.52228 4.223 3.52228H4.63411V2.58613ZM17.9674 8.66693C17.9674 11.9615 15.2973 14.6322 12.003 14.6334H12.0008C8.70548 14.6334 6.03411 11.962 6.03411 8.66671V2.70005H17.9674V2.70611V2.71639V2.72668V2.73699V2.74731V2.75764V2.76798V2.77833V2.78869V2.79906V2.80945V2.81984V2.83025V2.84066V2.85109V2.86153V2.87198V2.88244V2.89291V2.90339V2.91388V2.92439V2.9349V2.94543V2.95596V2.96651V2.97706V2.98763V2.99821V3.00879V3.01939V3.03V3.04062V3.05125V3.06189V3.07254V3.0832V3.09387V3.10455V3.11524V3.12594V3.13665V3.14737V3.1581V3.16884V3.17959V3.19035V3.20112V3.21191V3.2227V3.2335V3.24431V3.25513V3.26596V3.2768V3.28765V3.29851V3.30938V3.32025V3.33114V3.34204V3.35295V3.36387V3.37479V3.38573V3.39667V3.40763V3.41859V3.42957V3.44055V3.45154V3.46254V3.47355V3.48457V3.4956V3.50664V3.51769V3.52874V3.53981V3.55089V3.56197V3.57306V3.58416V3.59527V3.60639V3.61752V3.62866V3.63981V3.65096V3.66213V3.6733V3.68448V3.69567V3.70687V3.71808V3.72929V3.74052V3.75175V3.76299V3.77424V3.7855V3.79677V3.80804V3.81932V3.83062V3.84192V3.85323V3.86454V3.87587V3.8872V3.89854V3.90989V3.92125V3.93262V3.94399V3.95537V3.96676V3.97816V3.98957V4.00098V4.01241V4.02384V4.03527V4.04672V4.05817V4.06963V4.0811V4.09258V4.10406V4.11556V4.12705V4.13856V4.15008V4.1616V4.17313V4.18467V4.19621V4.20776V4.21932V4.23089V4.24246V4.25405V4.26564V4.27723V4.28883V4.30045V4.31206V4.32369V4.33532V4.34696V4.35861V4.37026V4.38192V4.39359V4.40526V4.41694V4.42863V4.44033V4.45203V4.46374V4.47545V4.48717V4.4989V4.51064V4.52238V4.53413V4.54589V4.55765V4.56942V4.58119V4.59297V4.60476V4.61656V4.62836V4.64017V4.65198V4.6638V4.67563V4.68746V4.6993V4.71114V4.72299V4.73485V4.74672V4.75859V4.77046V4.78234V4.79423V4.80613V4.81803V4.82993V4.84184V4.85376V4.86569V4.87762V4.88955V4.90149V4.91344V4.92539V4.93735V4.94931V4.96128V4.97326V4.98524V4.99723V5.00922V5.02122V5.03322V5.04523V5.05724V5.06926V5.08128V5.09331V5.10535V5.11739V5.12943V5.14149V5.15354V5.1656V5.17767V5.18974V5.20182V5.2139V5.22599V5.23808V5.25017V5.26227V5.27438V5.28649V5.29861V5.31073V5.32286V5.33499V5.34712V5.35926V5.37141V5.38356V5.39571V5.40787V5.42003V5.4322V5.44437V5.45655V5.46873V5.48091V5.4931V5.5053V5.5175V5.5297V5.54191V5.55412V5.56633V5.57855V5.59078V5.60301V5.61524V5.62748V5.63972V5.65196V5.66421V5.67646V5.68872V5.70098V5.71324V5.72551V5.73779V5.75006V5.76234V5.77462V5.78691V5.7992V5.8115V5.8238V5.8361V5.8484V5.86071V5.87302V5.88534V5.89766V5.90998V5.92231V5.93464V5.94697V5.95931V5.97165V5.98399V5.99634V6.00869V6.02104V6.0334V6.04576V6.05812V6.07049V6.08285V6.09522V6.1076V6.11998V6.13236V6.14474V6.15713V6.16952V6.18191V6.1943V6.2067V6.2191V6.2315V6.24391V6.25632V6.26873V6.28114V6.29356V6.30598V6.3184V6.33082V6.34325V6.35568V6.36811V6.38054V6.39298V6.40541V6.41786V6.4303V6.44274V6.45519V6.46764V6.48009V6.49254V6.505V6.51746V6.52992V6.54238V6.55484V6.56731V6.57978V6.59225V6.60472V6.61719V6.62967V6.64215V6.65462V6.6671V6.67959V6.69207V6.70456V6.71704V6.72953V6.74202V6.75451V6.76701V6.7795V6.792V6.8045V6.817V6.8295V6.842V6.8545V6.86701V6.87951V6.89202V6.90453V6.91704V6.92955V6.94206V6.95457V6.96709V6.9796V6.99212V7.00464V7.01715V7.02967V7.04219V7.05471V7.06724V7.07976V7.09228V7.1048V7.11733V7.12986V7.14238V7.15491V7.16743V7.17996V7.19249V7.20502V7.21755V7.23008V7.24261V7.25514V7.26767V7.2802V7.29274V7.30527V7.3178V7.33033V7.34287V7.3554V7.36793V7.38047V7.393V7.40553V7.41807V7.4306V7.44314V7.45567V7.4682V7.48074V7.49327V7.5058V7.51834V7.53087V7.5434V7.55593V7.56847V7.581V7.59353V7.60606V7.61859V7.63112V7.64365V7.65618V7.66871V7.68124V7.69377V7.7063V7.71882V7.73135V7.74388V7.7564V7.76892V7.78145V7.79397V7.80649V7.81901V7.83153V7.84405V7.85657V7.86909V7.8816V7.89412V7.90663V7.91915V7.93166V7.94417V7.95668V7.96919V7.9817V7.9942V8.00671V8.01921V8.03171V8.04421V8.05671V8.06921V8.08171V8.0942V8.1067V8.11919V8.13168V8.14417V8.15666V8.16914V8.18163V8.19411V8.20659V8.21907V8.23155V8.24403V8.2565V8.26897V8.28144V8.29391V8.30638V8.31884V8.3313V8.34376V8.35622V8.36868V8.38113V8.39358V8.40603V8.41848V8.43093V8.44337V8.45581V8.46825V8.48069V8.49312V8.50555V8.51798V8.53041V8.54283V8.55525V8.56767V8.58009V8.5925V8.60492V8.61733V8.62973V8.64214V8.65454V8.66693ZM19.2774 9.82239L20.434 9.27058C20.9636 9.01794 21.3008 8.48343 21.3008 7.8967V6.4445C21.3008 5.6038 20.6193 4.92228 19.7786 4.92228H19.3674V4.92539V4.93735V4.94931V4.96128V4.97326V4.98524V4.99723V5.00922V5.02122V5.03322V5.04523V5.05724V5.06926V5.08128V5.09331V5.10535V5.11739V5.12943V5.14149V5.15354V5.1656V5.17767V5.18974V5.20182V5.2139V5.22599V5.23808V5.25017V5.26227V5.27438V5.28649V5.29861V5.31073V5.32286V5.33499V5.34712V5.35926V5.37141V5.38356V5.39571V5.40787V5.42003V5.4322V5.44437V5.45655V5.46873V5.48091V5.4931V5.5053V5.5175V5.5297V5.54191V5.55412V5.56633V5.57855V5.59078V5.60301V5.61524V5.62748V5.63972V5.65196V5.66421V5.67646V5.68872V5.70098V5.71324V5.72551V5.73779V5.75006V5.76234V5.77462V5.78691V5.7992V5.8115V5.8238V5.8361V5.8484V5.86071V5.87302V5.88534V5.89766V5.90998V5.92231V5.93464V5.94697V5.95931V5.97165V5.98399V5.99634V6.00869V6.02104V6.0334V6.04576V6.05812V6.07049V6.08285V6.09522V6.1076V6.11998V6.13236V6.14474V6.15713V6.16952V6.18191V6.1943V6.2067V6.2191V6.2315V6.24391V6.25632V6.26873V6.28114V6.29356V6.30598V6.3184V6.33082V6.34325V6.35568V6.36811V6.38054V6.39298V6.40541V6.41786V6.4303V6.44274V6.45519V6.46764V6.48009V6.49254V6.505V6.51746V6.52992V6.54238V6.55484V6.56731V6.57978V6.59225V6.60472V6.61719V6.62967V6.64215V6.65462V6.6671V6.67959V6.69207V6.70456V6.71704V6.72953V6.74202V6.75451V6.76701V6.7795V6.792V6.8045V6.817V6.8295V6.842V6.8545V6.86701V6.87951V6.89202V6.90453V6.91704V6.92955V6.94206V6.95457V6.96709V6.9796V6.99212V7.00464V7.01715V7.02967V7.04219V7.05471V7.06724V7.07976V7.09228V7.1048V7.11733V7.12986V7.14238V7.15491V7.16743V7.17996V7.19249V7.20502V7.21755V7.23008V7.24261V7.25514V7.26767V7.2802V7.29274V7.30527V7.3178V7.33033V7.34287V7.3554V7.36793V7.38047V7.393V7.40553V7.41807V7.4306V7.44314V7.45567V7.4682V7.48074V7.49327V7.5058V7.51834V7.53087V7.5434V7.55593V7.56847V7.581V7.59353V7.60606V7.61859V7.63112V7.64365V7.65618V7.66871V7.68124V7.69377V7.7063V7.71882V7.73135V7.74388V7.7564V7.76892V7.78145V7.79397V7.80649V7.81901V7.83153V7.84405V7.85657V7.86909V7.8816V7.89412V7.90663V7.91915V7.93166V7.94417V7.95668V7.96919V7.9817V7.9942V8.00671V8.01921V8.03171V8.04421V8.05671V8.06921V8.08171V8.0942V8.1067V8.11919V8.13168V8.14417V8.15666V8.16914V8.18163V8.19411V8.20659V8.21907V8.23155V8.24403V8.2565V8.26897V8.28144V8.29391V8.30638V8.31884V8.3313V8.34376V8.35622V8.36868V8.38113V8.39358V8.40603V8.41848V8.43093V8.44337V8.45581V8.46825V8.48069V8.49312V8.50555V8.51798V8.53041V8.54283V8.55525V8.56767V8.58009V8.5925V8.60492V8.61733V8.62973V8.64214V8.65454V8.66693C19.3674 9.06004 19.3367 9.44595 19.2774 9.82239ZM4.63411 8.66671C4.63411 9.0599 4.66492 9.44589 4.72424 9.82241L3.56756 9.27058C3.038 9.01794 2.70078 8.48343 2.70078 7.8967V6.4445C2.70078 5.6038 3.3823 4.92228 4.223 4.92228H4.63411V8.66671ZM8.49487 19.6712C8.75836 19.4735 9.07884 19.3667 9.4082 19.3667H12.0008H14.5934C14.9227 19.3667 15.2432 19.4735 15.5067 19.6712L16.6919 20.5601C17.008 20.7971 16.8403 21.3001 16.4452 21.3001H7.55635C7.16126 21.3001 6.99362 20.7971 7.30968 20.5601L8.49487 19.6712Z" fill="black"/>
<path d="M11.8425 6.20125C11.9226 6.09893 12.0774 6.09893 12.1575 6.20125L12.7183 6.91782C12.7413 6.94724 12.7721 6.96963 12.8072 6.98244L13.662 7.29436C13.7841 7.3389 13.832 7.48617 13.7594 7.59395L13.2512 8.34874C13.2303 8.37973 13.2185 8.41595 13.2172 8.45329L13.1847 9.36265C13.1801 9.49249 13.0548 9.58351 12.9299 9.5478L12.055 9.29771C12.019 9.28744 11.981 9.28744 11.945 9.29771L11.0701 9.5478C10.9452 9.58351 10.8199 9.49249 10.8153 9.36265L10.7828 8.45329C10.7815 8.41595 10.7697 8.37973 10.7488 8.34874L10.2406 7.59395C10.168 7.48617 10.2159 7.3389 10.338 7.29436L11.1928 6.98244C11.2279 6.96963 11.2587 6.94724 11.2817 6.91782L11.8425 6.20125Z" fill="black"/>
</svg>
