<svg width="88" height="25" viewBox="0 0 88 25" fill="none" xmlns="http://www.w3.org/2000/svg">
<path d="M32.4994 8.90015H29.4124V16.101H31.0044V10.4605H31.4622L34.0048 16.101H35.7455L32.4994 8.90015Z" fill="white"/>
<path d="M60.2866 16.101H61.8787V8.90015H60.2866V16.101Z" fill="white"/>
<path d="M38.9911 8.90015L35.7454 16.101H37.4857L40.0283 10.4605H40.4861V16.101H42.0782V8.90015H38.9911Z" fill="white"/>
<path d="M49.1978 8.90015H46.2853L43.0393 16.101H44.7799L45.8375 13.7547H49.6457L50.7032 16.101H52.4438L49.1978 8.90015ZM46.5409 12.1943L47.3225 10.4605H48.1606L48.9422 12.1943H46.5409Z" fill="white"/>
<path d="M57.0407 8.90015H53.3643V16.101H54.9563V10.4605H56.0035L58.5461 16.101H60.2867L57.0407 8.90015Z" fill="white"/>
<path d="M62.7629 8.90015V10.4605H66.4777V16.101H68.07V10.4605H71.7845V8.90015H62.7629Z" fill="white"/>
<path d="M74.2612 8.90015H72.6689V16.101H79.5973V14.5406H74.2612V8.90015Z" fill="white"/>
<path d="M88 10.4605V8.90015H80.4817V16.101H88V14.5406H82.074V13.1768H87.2111V11.6164H82.074V10.4605H88Z" fill="white"/>
<path d="M4.79364 9.09087L1.26196 7.32849C0.98571 7.86043 0.750444 8.41818 0.563232 8.98624L4.33431 10.1814C4.45755 9.80774 4.61173 9.4408 4.79364 9.09087Z" fill="white"/>
<path d="M7.79361 5.98485L9.74976 9.28825C10.0354 9.12587 10.3412 9.001 10.6593 8.91719L9.6469 5.22864C9.90453 5.16074 10.1664 5.10468 10.4297 5.06394L9.80753 1.22742C9.20582 1.32104 8.60793 1.46234 8.03006 1.64699L9.23974 5.28065C8.85497 5.40375 8.48026 5.55661 8.1194 5.7375L6.34132 2.33587C5.80062 2.60749 5.27761 2.92303 4.78613 3.2747L7.12258 6.41225C7.33779 6.2585 7.56302 6.11633 7.79361 5.98485Z" fill="white"/>
<path d="M18.2906 8.72181L14.9214 10.6408C15.0874 10.9205 15.2147 11.2204 15.3006 11.5317L19.0636 10.5376C19.133 10.7902 19.1902 11.0465 19.232 11.3042L23.1458 10.6934C23.05 10.1039 22.9055 9.51762 22.7165 8.951L19.0097 10.1389C18.8838 9.76181 18.7278 9.39481 18.543 9.04112L22.0125 7.29612C21.7353 6.76675 21.4128 6.25412 21.054 5.77271L17.8537 8.06419C18.0108 8.27512 18.1565 8.49556 18.2906 8.72181Z" fill="white"/>
<path d="M16.9168 2.32032C16.3734 2.04986 15.8044 1.81955 15.2254 1.63635L14.0081 5.33302C14.3889 5.45351 14.7634 5.60493 15.121 5.78293L16.9168 2.32032Z" fill="white"/>
<path d="M15.5095 5.91716L13.531 9.28269C13.8176 9.4445 14.0817 9.64275 14.3167 9.87213L19.8659 4.41486C19.4354 3.99442 18.9678 3.60404 18.476 3.25439L16.1873 6.348C15.9692 6.19312 15.743 6.04922 15.5095 5.91716Z" fill="white"/>
<path d="M4.93109 8.70962L8.36399 10.6509C8.52908 10.3703 8.73193 10.1111 8.96634 9.8805L3.40067 4.4397C2.9714 4.86158 2.5728 5.31958 2.21606 5.80127L5.37126 8.04593C5.21324 8.25943 5.06582 8.48081 4.93109 8.70962Z" fill="white"/>
<path d="M12.8467 4.99866L13.4455 1.22224C12.8538 1.13208 12.2483 1.08643 11.6453 1.08643H11.6362V8.79125H11.6453C11.9768 8.79125 12.3046 8.83288 12.62 8.91494L13.6366 5.16047C13.3765 5.09286 13.113 5.0394 12.8467 4.99866Z" fill="white"/>
<path d="M7.98766 11.5428L4.15759 10.5438C4.08831 10.7987 4.03347 11.057 3.9919 11.3179L0.139451 10.7293C0.0468768 11.3113 0 11.9071 0 12.4998H7.86114C7.86114 12.1744 7.90368 11.8523 7.98766 11.5428Z" fill="white"/>
<path d="M18.4974 15.9099L22.0291 17.6723C22.3053 17.1403 22.5405 16.5826 22.7278 16.0145L18.9567 14.8193C18.8334 15.193 18.6793 15.56 18.4974 15.9099Z" fill="white"/>
<path d="M15.4973 19.015L13.5411 15.7117C13.2554 15.874 12.9497 15.9989 12.6316 16.0827L13.644 19.7712C13.386 19.8392 13.1245 19.8952 12.8613 19.936L13.483 23.7722C14.0848 23.6785 14.6827 23.5372 15.2606 23.3526L14.0509 19.7189C14.4359 19.5959 14.8104 19.443 15.1712 19.2621L16.9493 22.6637C17.49 22.3921 18.013 22.0765 18.5044 21.7249L16.168 18.5874C15.9528 18.7411 15.7279 18.8835 15.4973 19.015Z" fill="white"/>
<path d="M5.00065 16.2791L8.3702 14.3601C8.20421 14.0804 8.0768 13.7804 7.99103 13.4692L4.22792 14.4632C4.15863 14.2107 4.10144 13.9544 4.05958 13.6966L0.145508 14.3075C0.241326 14.897 0.385789 15.4833 0.57477 16.0499L4.28158 14.862C4.40746 15.2391 4.56343 15.6061 4.74829 15.9598L1.27881 17.7048C1.55594 18.2342 1.87848 18.7468 2.23728 19.2282L5.43758 16.9367C5.28044 16.7258 5.13479 16.5053 5.00065 16.2791Z" fill="white"/>
<path d="M6.37427 22.6802C6.9176 22.9507 7.48661 23.1809 8.06568 23.3642L9.28302 19.6675C8.90207 19.547 8.52768 19.3955 8.17001 19.2175L6.37427 22.6802Z" fill="white"/>
<path d="M7.78157 19.0837L9.76017 15.7182C9.4736 15.5564 9.20941 15.3582 8.97442 15.1288L3.42529 20.586C3.85573 21.0065 4.32333 21.3968 4.81509 21.7465L7.10378 18.6529C7.322 18.8078 7.54805 18.9517 7.78157 19.0837Z" fill="white"/>
<path d="M18.3597 16.2912L14.9268 14.35C14.7617 14.6305 14.5588 14.8897 14.3245 15.1203L19.8898 20.5614C20.3191 20.1395 20.7177 19.6815 21.0744 19.1999L17.9192 16.9552C18.0773 16.7417 18.225 16.52 18.3597 16.2912Z" fill="white"/>
<path d="M10.6708 16.0852L9.6543 19.8397C9.91434 19.9073 10.1779 19.9608 10.4441 20.0015L9.84567 23.7779C10.4374 23.8681 11.0429 23.9137 11.6458 23.9137H11.655V16.2089H11.6458C11.3144 16.2089 10.9863 16.1673 10.6708 16.0852Z" fill="white"/>
<path d="M15.43 12.5006C15.43 12.826 15.3873 13.1479 15.3032 13.4576L19.1333 14.4565C19.2026 14.2017 19.2574 13.9434 19.2989 13.6824L23.1517 14.2714C23.2443 13.6894 23.2911 13.0935 23.2911 12.5009L15.43 12.5006Z" fill="white"/>
</svg>
