<svg width="26" height="26" viewBox="0 0 26 26" fill="none" xmlns="http://www.w3.org/2000/svg">
<path d="M7.33291 5.63672C11.3828 5.63672 14.6656 8.94243 14.6656 13.0199C14.6656 17.0975 11.3825 20.4029 7.33291 20.4029C3.28329 20.4029 0 17.0975 0 13.0199C0 8.94243 3.28304 5.63672 7.33291 5.63672ZM19.043 6.06921C21.068 6.06921 22.7095 9.18085 22.7095 13.0199H22.7097C22.7097 16.8581 21.0682 19.9707 19.0433 19.9707C17.0183 19.9707 15.3768 16.8581 15.3768 13.0199C15.3768 9.18185 17.0181 6.06921 19.043 6.06921ZM24.7105 6.79318C25.4225 6.79318 26 9.58095 26 13.0199C26 16.458 25.4228 19.2467 24.7105 19.2467C23.9982 19.2467 23.4213 16.4587 23.4213 13.0199C23.4213 9.5812 23.9985 6.79318 24.7105 6.79318Z" fill="black"/>
</svg>
