<svg width="28" height="28" viewBox="0 0 28 28" fill="none" xmlns="http://www.w3.org/2000/svg">
<path d="M12.875 7.875V12.875H7.875C7.57663 12.875 7.29048 12.9935 7.07951 13.2045C6.86853 13.4155 6.75 13.7016 6.75 14C6.75 14.2984 6.86853 14.5845 7.0795 14.7955C7.29048 15.0065 7.57663 15.125 7.875 15.125H12.875V20.125C12.875 20.4234 12.9935 20.7095 13.2045 20.9205C13.4155 21.1315 13.7016 21.25 14 21.25C14.2984 21.25 14.5845 21.1315 14.7955 20.9205C15.0065 20.7095 15.125 20.4234 15.125 20.125V15.125H20.125C20.4234 15.125 20.7095 15.0065 20.9205 14.7955C21.1315 14.5845 21.25 14.2984 21.25 14C21.25 13.7016 21.1315 13.4155 20.9205 13.2045C20.7095 12.9935 20.4234 12.875 20.125 12.875H15.125V7.875C15.125 7.57663 15.0065 7.29048 14.7955 7.07951C14.5845 6.86853 14.2984 6.75 14 6.75C13.7016 6.75 13.4155 6.86853 13.2045 7.0795C12.9935 7.29048 12.875 7.57663 12.875 7.875Z" fill="white" stroke="white" stroke-width="0.5"/>
<circle cx="14" cy="14" r="12.5" stroke="white" stroke-width="3"/>
</svg>
