<svg width="16" height="16" viewBox="0 0 16 16" fill="none" xmlns="http://www.w3.org/2000/svg">
<path d="M13.6667 7.33333H10C9.63181 7.33333 9.33333 7.03486 9.33333 6.66667V3C9.33333 2.44772 8.88562 2 8.33333 2C7.78105 2 7.33333 2.44772 7.33333 3V6.66667C7.33333 7.03486 7.03486 7.33333 6.66667 7.33333H3C2.44772 7.33333 2 7.78105 2 8.33333C2 8.88562 2.44772 9.33333 3 9.33333H6.66667C7.03486 9.33333 7.33333 9.63181 7.33333 10V13.6667C7.33333 14.219 7.78105 14.6667 8.33333 14.6667C8.88562 14.6667 9.33333 14.219 9.33333 13.6667V10C9.33333 9.63181 9.63181 9.33333 10 9.33333H13.6667C14.219 9.33333 14.6667 8.88562 14.6667 8.33333C14.6667 7.78105 14.219 7.33333 13.6667 7.33333Z" fill="white"/>
</svg>
