<svg width="16" height="17" viewBox="0 0 16 17" fill="none" xmlns="http://www.w3.org/2000/svg">
<path d="M8.00084 14.7089C11.8563 14.7089 15.0008 11.5917 15.0008 7.70886C15.0008 3.85339 11.8563 0.708862 8.00084 0.708862C4.11802 0.708862 1.00084 3.85339 1.00084 7.70886C1.00084 11.5917 4.11802 14.7089 8.00084 14.7089ZM6.90709 9.89636H7.56334V8.14636H6.90709C6.52427 8.14636 6.25084 7.87292 6.25084 7.49011C6.25084 7.13464 6.52427 6.83386 6.90709 6.83386H8.21959C8.57506 6.83386 8.87584 7.13464 8.87584 7.49011V9.89636H9.09459C9.45006 9.89636 9.75084 10.1971 9.75084 10.5526C9.75084 10.9354 9.45006 11.2089 9.09459 11.2089H6.90709C6.52427 11.2089 6.25084 10.9354 6.25084 10.5526C6.25084 10.1971 6.52427 9.89636 6.90709 9.89636ZM8.00084 5.95886C7.50865 5.95886 7.12584 5.57605 7.12584 5.08386C7.12584 4.61902 7.50865 4.20886 8.00084 4.20886C8.46568 4.20886 8.87584 4.61902 8.87584 5.08386C8.87584 5.57605 8.46568 5.95886 8.00084 5.95886Z" fill="#FFAB49"/>
</svg>
