<svg width="26" height="26" viewBox="0 0 26 26" fill="none" xmlns="http://www.w3.org/2000/svg">
<path d="M21.6145 8.58012C21.6277 8.77113 21.6277 8.96214 21.6277 9.15491C21.6277 15.0286 17.1562 21.8028 8.97982 21.8028V21.7993C6.56449 21.8028 4.19933 21.111 2.16602 19.8065C2.51722 19.8487 2.87019 19.8698 3.22404 19.8707C5.22567 19.8725 7.17008 19.2009 8.7448 17.9642C6.84264 17.9281 5.17461 16.6878 4.59191 14.8772C5.25824 15.0057 5.94481 14.9793 6.59881 14.8007C4.52501 14.3817 3.03303 12.5596 3.03303 10.4436C3.03303 10.4242 3.03303 10.4057 3.03303 10.3872C3.65095 10.7314 4.34281 10.9224 5.0505 10.9435C3.09729 9.63815 2.49522 7.03973 3.67472 5.00818C5.93161 7.78528 9.26149 9.47355 12.8361 9.65223C12.4778 8.10832 12.9672 6.49048 14.1221 5.40516C15.9124 3.72218 18.7283 3.80844 20.4113 5.59793C21.4068 5.40164 22.361 5.03635 23.2341 4.51878C22.9023 5.54776 22.2078 6.42182 21.28 6.97724C22.1611 6.87337 23.022 6.63747 23.8327 6.27746C23.2359 7.17177 22.4842 7.95076 21.6145 8.58012Z" fill="black"/>
</svg>
