<svg width="18" height="18" viewBox="0 0 18 18" fill="none" xmlns="http://www.w3.org/2000/svg">
<mask id="path-1-outside-1_1272_5095" maskUnits="userSpaceOnUse" x="0" y="1" width="18" height="16" fill="black">
<rect fill="white" y="1" width="18" height="16"/>
<path d="M16.992 5.65912C16.9995 5.30252 16.9 4.47013 15.776 4.18061L4.49297 2C3.66583 2 2.99363 2.64902 2.99363 3.44763V5.38841L2.49385 5.38745C1.66971 5.39083 1 6.03791 1 6.83459V14.5524C1 15.3505 1.67221 16 2.49934 16H15.5007C16.3273 16 17 15.3505 17 14.5524L16.992 5.65912ZM3.99369 3.44714C3.99369 3.19526 4.1946 2.98776 4.44999 2.96653L15.4767 5.12108C15.4807 5.12301 15.3947 5.39131 14.9944 5.38648H3.99369V3.44714ZM16.0019 14.5519C16.0019 14.8183 15.778 15.0344 15.5022 15.0344H2.50034C2.22446 15.0344 2.00056 14.8183 2.00056 14.5519V6.83363C2.00056 6.56726 2.22446 6.35108 2.50034 6.35108H14.9959C15.4867 6.35108 16.0014 6.18943 16.0014 5.87047L16.0019 14.5519ZM5 9.73081C4.44824 9.73081 4.00044 10.1627 4.00044 10.6959C4.00044 11.2291 4.44824 11.661 5 11.661C5.55176 11.661 5.99956 11.2291 5.99956 10.6959C5.99956 10.1627 5.55176 9.73081 5 9.73081Z"/>
</mask>
<path d="M16.992 5.65912C16.9995 5.30252 16.9 4.47013 15.776 4.18061L4.49297 2C3.66583 2 2.99363 2.64902 2.99363 3.44763V5.38841L2.49385 5.38745C1.66971 5.39083 1 6.03791 1 6.83459V14.5524C1 15.3505 1.67221 16 2.49934 16H15.5007C16.3273 16 17 15.3505 17 14.5524L16.992 5.65912ZM3.99369 3.44714C3.99369 3.19526 4.1946 2.98776 4.44999 2.96653L15.4767 5.12108C15.4807 5.12301 15.3947 5.39131 14.9944 5.38648H3.99369V3.44714ZM16.0019 14.5519C16.0019 14.8183 15.778 15.0344 15.5022 15.0344H2.50034C2.22446 15.0344 2.00056 14.8183 2.00056 14.5519V6.83363C2.00056 6.56726 2.22446 6.35108 2.50034 6.35108H14.9959C15.4867 6.35108 16.0014 6.18943 16.0014 5.87047L16.0019 14.5519ZM5 9.73081C4.44824 9.73081 4.00044 10.1627 4.00044 10.6959C4.00044 11.2291 4.44824 11.661 5 11.661C5.55176 11.661 5.99956 11.2291 5.99956 10.6959C5.99956 10.1627 5.55176 9.73081 5 9.73081Z" fill="white"/>
<path d="M16.992 5.65912L16.592 5.65071L16.592 5.65948L16.992 5.65912ZM15.776 4.18061L15.8758 3.79325L15.864 3.7902L15.8519 3.78788L15.776 4.18061ZM4.49297 2L4.56887 1.60727L4.53127 1.6H4.49297V2ZM2.99363 5.38841L2.99286 5.78841L3.39363 5.78919V5.38841H2.99363ZM2.49385 5.38745L2.49462 4.98744L2.49221 4.98745L2.49385 5.38745ZM17 14.5524H17.4V14.552L17 14.5524ZM4.44999 2.96653L4.5267 2.57396L4.47219 2.56331L4.41685 2.56791L4.44999 2.96653ZM15.4767 5.12108L15.6506 4.76086L15.6041 4.73841L15.5534 4.72851L15.4767 5.12108ZM14.9944 5.38648L14.9992 4.98648H14.9944V5.38648ZM3.99369 5.38648H3.59369V5.78648H3.99369V5.38648ZM16.0019 14.5519H16.4019V14.5519L16.0019 14.5519ZM16.0014 5.87047L16.4014 5.87045L15.6014 5.87047H16.0014ZM17.3919 5.66753C17.3965 5.45109 17.3699 5.07265 17.156 4.69683C16.9341 4.30716 16.535 3.96304 15.8758 3.79325L15.6763 4.56796C16.1411 4.68771 16.3537 4.90454 16.4607 5.09259C16.5756 5.2945 16.595 5.51055 16.5921 5.65071L17.3919 5.66753ZM15.8519 3.78788L4.56887 1.60727L4.41707 2.39273L15.7001 4.57334L15.8519 3.78788ZM4.49297 1.6C3.45827 1.6 2.59363 2.41499 2.59363 3.44763H3.39363C3.39363 2.88305 3.8734 2.4 4.49297 2.4V1.6ZM2.59363 3.44763V5.38841H3.39363V3.44763H2.59363ZM2.9944 4.98841L2.49462 4.98745L2.49307 5.78745L2.99286 5.78841L2.9944 4.98841ZM2.49221 4.98745C1.46172 4.99167 0.6 5.80397 0.6 6.83459H1.4C1.4 6.27186 1.8777 5.78998 2.49549 5.78744L2.49221 4.98745ZM0.6 6.83459V14.5524H1.4V6.83459H0.6ZM0.6 14.5524C0.6 15.5844 1.46455 16.4 2.49934 16.4V15.6C1.87986 15.6 1.4 15.1166 1.4 14.5524H0.6ZM2.49934 16.4H15.5007V15.6H2.49934V16.4ZM15.5007 16.4C16.5349 16.4 17.4 15.5845 17.4 14.5524H16.6C16.6 15.1165 16.1197 15.6 15.5007 15.6V16.4ZM17.4 14.552L17.392 5.65876L16.592 5.65948L16.6 14.5527L17.4 14.552ZM4.39369 3.44714C4.39369 3.41661 4.42159 3.37027 4.48313 3.36516L4.41685 2.56791C3.96762 2.60525 3.59369 2.97391 3.59369 3.44714H4.39369ZM4.37328 3.35911L15.4 5.51366L15.5534 4.72851L4.5267 2.57396L4.37328 3.35911ZM15.3028 5.48131C15.1816 5.42281 15.1286 5.32467 15.1087 5.27783C15.0876 5.22826 15.0815 5.18585 15.0793 5.16583C15.0746 5.12435 15.0778 5.09183 15.0788 5.08139C15.0815 5.05513 15.0863 5.0354 15.0878 5.02915C15.0919 5.01248 15.0961 5.00072 15.0979 4.99573C15.1023 4.9838 15.1059 4.97667 15.1077 4.9733C15.1116 4.96606 15.1138 4.96425 15.1133 4.96475C15.1132 4.96486 15.1122 4.96577 15.11 4.96717C15.1078 4.96853 15.1037 4.9709 15.0967 4.97355C15.0836 4.97854 15.0537 4.98717 14.9992 4.98651L14.9896 5.78645C15.2892 5.79006 15.5117 5.68807 15.661 5.54789C15.7315 5.48167 15.7795 5.41273 15.8109 5.35479C15.8265 5.32607 15.8393 5.2977 15.8491 5.27075C15.8537 5.25824 15.8597 5.24053 15.8648 5.21973C15.8668 5.2114 15.8719 5.19006 15.8747 5.16267C15.8758 5.15167 15.879 5.1187 15.8743 5.0769C15.8721 5.05673 15.8659 5.01419 15.8448 4.96453C15.8248 4.91759 15.7718 4.81939 15.6506 4.76086L15.3028 5.48131ZM14.9944 4.98648H3.99369V5.78648H14.9944V4.98648ZM4.39369 5.38648V3.44714H3.59369V5.38648H4.39369ZM15.6019 14.5519C15.6019 14.5842 15.5705 14.6344 15.5022 14.6344V15.4344C15.9856 15.4344 16.4019 15.0523 16.4019 14.5519H15.6019ZM15.5022 14.6344H2.50034V15.4344H15.5022V14.6344ZM2.50034 14.6344C2.43203 14.6344 2.40056 14.5842 2.40056 14.5519H1.60056C1.60056 15.0523 2.0169 15.4344 2.50034 15.4344V14.6344ZM2.40056 14.5519V6.83363H1.60056V14.5519H2.40056ZM2.40056 6.83363C2.40056 6.8013 2.43203 6.75108 2.50034 6.75108V5.95108C2.0169 5.95108 1.60056 6.33323 1.60056 6.83363H2.40056ZM2.50034 6.75108H14.9959V5.95108H2.50034V6.75108ZM14.9959 6.75108C15.2773 6.75108 15.5852 6.70579 15.8384 6.59886C16.0678 6.50192 16.4014 6.28257 16.4014 5.87047H15.6014C15.6014 5.77734 15.6777 5.79829 15.527 5.86192C15.4001 5.91555 15.2052 5.95108 14.9959 5.95108V6.75108ZM15.6014 5.8705L15.6019 14.5519L16.4019 14.5519L16.4014 5.87045L15.6014 5.8705ZM5 9.33081C4.24081 9.33081 3.60044 9.92853 3.60044 10.6959H4.40044C4.40044 10.3968 4.65567 10.1308 5 10.1308V9.33081ZM3.60044 10.6959C3.60044 11.4633 4.24081 12.061 5 12.061V11.261C4.65567 11.261 4.40044 10.9949 4.40044 10.6959H3.60044ZM5 12.061C5.75919 12.061 6.39956 11.4633 6.39956 10.6959H5.59956C5.59956 10.9949 5.34433 11.261 5 11.261V12.061ZM6.39956 10.6959C6.39956 9.92853 5.75919 9.33081 5 9.33081V10.1308C5.34433 10.1308 5.59956 10.3968 5.59956 10.6959H6.39956Z" fill="white" mask="url(#path-1-outside-1_1272_5095)"/>
</svg>
