<svg width="25" height="25" viewBox="0 0 25 25" fill="none" xmlns="http://www.w3.org/2000/svg">
<g clip-path="url(#clip0_1460_51176)">
<path fill-rule="evenodd" clip-rule="evenodd" d="M1.60028 2.75058L0.658015 2.70069L0.653747 3.6523L0.653271 3.85066C0.652988 4.00518 0.652613 4.27194 0.652238 4.72137C0.651488 5.62018 0.650738 7.25015 0.650738 10.1751V10.5508L1.76719 11.6768C1.32513 11.9573 0.880976 12.2345 0.434786 12.5086L0.0034939 12.7735L0 19.0465L5.1497 24.2435L5.48777 24.2657C11.8066 24.682 18.3052 24.2202 24.3939 22.1016L25 21.8907V14.3528L23.6828 13.0243C23.9072 12.8009 24.1311 12.5755 24.3534 12.3488L24.6132 12.0838V11.711C24.6132 11.4538 24.614 10.1064 24.6148 8.82286L24.6165 5.94462L19.3123 0.595215L18.7844 0.773584C13.3025 2.62568 7.42292 3.0589 1.60028 2.75058ZM19.0701 1.63366L23.7169 6.3201C23.7169 6.3201 23.7139 11.1957 23.7139 11.711C23.493 11.9363 23.2703 12.1605 23.0468 12.3829C22.8328 12.596 22.618 12.8074 22.4035 13.0169L24.1006 14.7285V21.2441C18.1583 23.3118 11.7872 23.7718 5.5464 23.3606L0.899592 18.6711L0.902592 13.2833C1.41074 12.9712 1.91633 12.6549 2.41927 12.3344C2.67882 12.169 2.93766 12.0024 3.19577 11.8348L1.55012 10.1751C1.55012 7.07048 1.55096 5.42515 1.55176 4.56462C1.55246 3.80373 1.55312 3.65638 1.55312 3.65638C1.85261 3.67224 2.15238 3.68617 2.45237 3.69807C8.05506 3.92045 13.7328 3.43691 19.0701 1.63366Z" fill="white"/>
<path fill-rule="evenodd" clip-rule="evenodd" d="M1.55313 3.65651C7.44609 3.96856 13.447 3.53359 19.0701 1.63379L23.7169 6.32023C23.7169 6.32023 23.7139 11.1959 23.7139 11.7111C23.2814 12.1522 22.842 12.5888 22.4036 13.0171L24.1006 14.7286V21.2443C18.1583 23.3119 11.7872 23.7719 5.54639 23.3607L0.899597 18.6713L0.9026 13.2834C1.67298 12.8102 2.43747 12.3275 3.19579 11.8349L1.55013 10.1752C1.55013 4.32561 1.55313 3.65651 1.55313 3.65651Z" fill="#0D0D0D"/>
<path d="M21.9151 8.69054V11.3028C19.0161 14.0905 16.1171 16.5214 13.2211 18.6893C16.249 18.4867 19.2739 17.9999 22.3048 17.1171C22.3048 18.0815 22.3048 19.043 22.3048 20.0075C18.1257 21.229 13.9496 21.6916 9.77346 21.6916C8.96402 21.6916 8.15459 21.6735 7.34515 21.6402V19.0279C10.2441 17.1684 13.1432 15.1155 16.0392 12.7662C13.9556 13.0353 11.872 13.1502 9.78843 13.1502C9.18884 13.1502 8.59227 13.1411 7.99268 13.123C7.99268 12.1585 7.99268 11.197 7.99268 10.2325C8.58625 10.2507 9.17688 10.2597 9.77048 10.2597C13.8177 10.2597 17.8649 9.82735 21.9121 8.6875L21.9151 8.69054Z" fill="white"/>
</g>
<defs>
<clipPath id="clip0_1460_51176">
<rect width="25" height="25" fill="white"/>
</clipPath>
</defs>
</svg>
